<svg xmlns="http://www.w3.org/2000/svg" width="256" height="256" viewBox="0 0 256 256" fill="none">
  <defs>
    <filter id="softShadow" x="28" y="166" width="200" height="64" color-interpolation-filters="sRGB" filterUnits="userSpaceOnUse">
      <feGaussianBlur stdDeviation="7"/>
    </filter>
    <linearGradient id="body" x1="100" y1="78" x2="156" y2="140" gradientUnits="userSpaceOnUse">
      <stop stop-color="#d94a2e"/>
      <stop offset="1" stop-color="#6d130c"/>
    </linearGradient>
  </defs>
  <ellipse cx="128" cy="205" rx="58" ry="22" fill="#160301" opacity="0.42" filter="url(#softShadow)"/>
  <path d="M 106 141 L 94 187.5" stroke="#6d130c" stroke-width="16" stroke-linecap="round"/>
  <path d="M 150 141 L 163 193.5" stroke="#6d130c" stroke-width="16" stroke-linecap="round"/>
  <path d="M 84 190.5 L 109 188.5" stroke="#030407" stroke-width="9" stroke-linecap="round"/>
  <path d="M 151 196.5 L 178 194.5" stroke="#030407" stroke-width="9" stroke-linecap="round"/>
  <polygon points="104.5,78 156.5,79.3 151.3,140 107.3,140" fill="url(#body)"/>
  <polygon points="115.3,95 143.3,95 138,118 118,118" fill="#431006" opacity="0.8"/>
  <path d="M 104.5 86 L 119.6 117.6" stroke="#6d130c" stroke-width="14" stroke-linecap="round"/>
  <path d="M 156.5 86 L 146.6 112.7" stroke="#6d130c" stroke-width="14" stroke-linecap="round"/>
  <path d="M 109.8 118 L 187.5 98.6" stroke="#120605" stroke-width="10" stroke-linecap="round"/>
  <path d="M 133.1 112.1 L 187.5 98.6" stroke="#020304" stroke-width="5" stroke-linecap="round"/>
  <path d="M 130.1 120.1 L 141.1 137.1" stroke="#120605" stroke-width="7" stroke-linecap="round"/>
  <ellipse cx="131.2" cy="56" rx="20" ry="21" fill="#bb7948"/>
  <path d="M 107.2 52 C 115.2 31, 147.2 31, 155.2 52 C 141.2 44, 121.2 44, 107.2 52 Z" fill="#f4aa52"/>
  <path d="M 110 127 L 146 127 L 140 141 L 116 141 Z" fill="#9f2518" opacity="0.86"/>
  <path d="M 105 128 L 151 128" stroke="#ffd166" stroke-width="5" stroke-linecap="round" opacity="0.82"/>

</svg>
